<svg width="60" height="60" viewBox="0 0 60 60" fill="none" xmlns="http://www.w3.org/2000/svg">
<path d="M6 59.25C3.105 59.25 0.75 56.895 0.75 54V6C0.75 3.105 3.105 0.75 6 0.75H54C56.895 0.75 59.25 3.105 59.25 6V54C59.25 56.895 56.895 59.25 54 59.25H6Z" fill="#F5F7FA"/>
<path d="M54 1.5C56.475 1.5 58.5 3.525 58.5 6V54C58.5 56.475 56.475 58.5 54 58.5H6C3.525 58.5 1.5 56.475 1.5 54V6C1.5 3.525 3.525 1.5 6 1.5H54ZM54 0H6C2.7 0 0 2.7 0 6V54C0 57.3 2.7 60 6 60H54C57.3 60 60 57.3 60 54V6C60 2.7 57.3 0 54 0Z" fill="#E6E6EA"/>
<g clip-path="url(#clip0_19_1176)">
<path d="M25.963 30.5885H27.6909L26.8269 28.1943L25.963 30.5885Z" fill="#331D1E"/>
<path d="M30 18C21.7154 18 15 23.164 15 29.5349C15 33.6536 17.8082 37.2716 22.0312 39.3085C21.8019 40.0808 20.5543 44.2798 20.5053 44.6103C20.5053 44.6103 20.475 44.8579 20.6394 44.9522C20.6944 44.9792 20.7545 44.9951 20.816 44.9987C20.8775 45.0023 20.9392 44.9937 20.9971 44.9733C21.4702 44.9086 26.4779 41.4833 27.3433 40.8939C28.2235 41.0131 29.1113 41.0718 30 41.0697C38.2846 41.0697 45 35.9058 45 29.5349C45 23.164 38.2846 18 30 18ZM22.5764 27.7441C22.5577 29.3759 22.5909 31.0921 22.5635 32.6985C22.5548 33.2119 22.2519 33.3653 21.8423 33.5116C21.796 33.5275 21.7462 33.5309 21.6981 33.5214C21.2293 33.4314 20.8558 33.2682 20.8442 32.6999C20.8111 31.0949 20.8543 29.3759 20.8313 27.7441C20.4346 27.7287 19.8692 27.7596 19.5014 27.7441C18.9909 27.7118 18.6361 27.3953 18.6577 26.924C18.6793 26.4528 18.9375 26.1138 19.5101 26.1053C20.863 26.0857 22.5389 26.0857 23.8918 26.1053C24.4688 26.1138 24.7255 26.4542 24.7428 26.924C24.7601 27.3939 24.4111 27.7118 23.9019 27.7441C23.5385 27.7596 22.9745 27.7287 22.5764 27.7441ZM29.8457 33.4342C29.6727 33.511 29.4848 33.5508 29.2947 33.551C28.9341 33.551 28.6587 33.4103 28.5736 33.1782L28.1409 32.0838H25.5072L25.0745 33.1782C24.9909 33.4075 24.7154 33.551 24.3534 33.551C24.1637 33.551 23.9763 33.5111 23.8038 33.4342C23.5644 33.3273 23.3351 33.0319 23.5976 32.2357L25.6731 26.9212C25.7601 26.6871 25.916 26.4833 26.1212 26.3351C26.3265 26.187 26.5719 26.1012 26.8269 26.0885C27.0817 26.1026 27.3267 26.1891 27.5317 26.3373C27.7367 26.4855 27.8928 26.689 27.9808 26.9226L30.049 32.2343C30.313 33.0319 30.0837 33.3329 29.8457 33.4342ZM34.2188 33.4342H31.4423C31.2273 33.4384 31.0193 33.3593 30.8639 33.2143C30.7085 33.0693 30.6183 32.8702 30.613 32.6605V26.9325C30.6222 26.71 30.7193 26.4996 30.884 26.3454C31.0486 26.1911 31.2681 26.105 31.4964 26.105C31.7247 26.105 31.9442 26.1911 32.1088 26.3454C32.2735 26.4996 32.3706 26.71 32.3798 26.9325V31.8911H34.2188C34.3269 31.8847 34.4353 31.9 34.5373 31.936C34.6392 31.972 34.7325 32.0279 34.8114 32.1004C34.8903 32.1729 34.9532 32.2603 34.9962 32.3574C35.0391 32.4544 35.0613 32.559 35.0613 32.6647C35.0613 32.7705 35.0391 32.8751 34.9962 32.9721C34.9532 33.0692 34.8903 33.1566 34.8114 33.2291C34.7325 33.3015 34.6392 33.3575 34.5373 33.3935C34.4353 33.4295 34.3269 33.4448 34.2188 33.4384V33.4342ZM40.9976 32.7984C40.9751 32.9649 40.9022 33.121 40.7881 33.2469C40.6741 33.3727 40.5242 33.4625 40.3576 33.5048C40.1909 33.5471 40.0152 33.54 39.8527 33.4843C39.6903 33.4286 39.5485 33.3269 39.4457 33.1922L37.4163 30.5716L37.1163 30.8642V32.7055C37.1163 32.9294 37.0252 33.1441 36.8629 33.3023C36.7006 33.4606 36.4805 33.5495 36.251 33.5495C36.0214 33.5495 35.8013 33.4606 35.639 33.3023C35.4768 33.1441 35.3856 32.9294 35.3856 32.7055V26.9381C35.3856 26.7143 35.4768 26.4996 35.639 26.3413C35.8013 26.183 36.0214 26.0941 36.251 26.0941C36.4805 26.0941 36.7006 26.183 36.8629 26.3413C37.0252 26.4996 37.1163 26.7143 37.1163 26.9381V28.7471L39.5308 26.3923C39.594 26.3314 39.669 26.2833 39.7515 26.2509C39.8339 26.2186 39.9222 26.2025 40.0111 26.2038C40.2272 26.2093 40.4335 26.2925 40.5906 26.4374C40.7477 26.5823 40.8443 26.7786 40.862 26.9887C40.8698 27.0825 40.857 27.1768 40.8244 27.2654C40.7918 27.3539 40.7402 27.4346 40.6731 27.5022L38.6971 29.4251L40.8274 32.178C40.9653 32.3566 41.025 32.5812 40.9933 32.8026L40.9976 32.7984Z" fill="#331D1E"/>
</g>
<defs>
<clipPath id="clip0_19_1176">
<rect width="30" height="27" fill="white" transform="translate(15 18)"/>
</clipPath>
</defs>
</svg>
