<svg width="60" height="60" viewBox="0 0 60 60" fill="none" xmlns="http://www.w3.org/2000/svg">
<path d="M6 59.25C3.105 59.25 0.75 56.895 0.75 54V6C0.75 3.105 3.105 0.75 6 0.75H54C56.895 0.75 59.25 3.105 59.25 6V54C59.25 56.895 56.895 59.25 54 59.25H6Z" fill="#F5F7FA"/>
<path d="M54 1.5C56.475 1.5 58.5 3.525 58.5 6V54C58.5 56.475 56.475 58.5 54 58.5H6C3.525 58.5 1.5 56.475 1.5 54V6C1.5 3.525 3.525 1.5 6 1.5H54ZM54 0H6C2.7 0 0 2.7 0 6V54C0 57.3 2.7 60 6 60H54C57.3 60 60 57.3 60 54V6C60 2.7 57.3 0 54 0Z" fill="#E6E6EA"/>
<g clip-path="url(#clip0_19_1167)">
<path fill-rule="evenodd" clip-rule="evenodd" d="M43.4999 30.3068C43.5011 29.3805 43.4172 28.456 43.2495 27.5444H30.2718V32.7664H37.6859C37.5321 33.5915 37.2092 34.3775 36.7368 35.077C36.2643 35.7765 35.6522 36.3749 34.9373 36.8361V40.2241H39.3886C41.9932 37.8739 43.496 34.4121 43.496 30.3042L43.4999 30.3068Z" fill="#3E82F1"/>
<path fill-rule="evenodd" clip-rule="evenodd" d="M30.2758 43.4983C33.9952 43.4983 37.1137 42.2901 39.3926 40.2285L34.9412 36.8405C33.7071 37.6506 32.129 38.1301 30.2758 38.1301C26.6875 38.1301 23.6507 35.7544 22.5684 32.5635H17.9652V36.0622C19.1119 38.2983 20.8704 40.178 23.0444 41.4911C25.2183 42.8043 27.722 43.4992 30.2758 43.4983Z" fill="#32A753"/>
<path fill-rule="evenodd" clip-rule="evenodd" d="M22.5684 32.5633C21.9922 30.9003 21.9922 29.0973 22.5684 27.4342V23.9355H17.9652C17.0018 25.8173 16.5001 27.8935 16.5001 29.9988C16.5001 32.1041 17.0018 34.1803 17.9652 36.062L22.5684 32.5633Z" fill="#F9BB00"/>
<path fill-rule="evenodd" clip-rule="evenodd" d="M30.2758 21.8682C32.299 21.8682 34.1146 22.5499 35.5421 23.8878L39.4925 20.0152C37.1072 17.8366 33.9887 16.5 30.2784 16.5C27.7246 16.4991 25.2209 17.194 23.047 18.5072C20.873 19.8203 19.1145 21.7 17.9678 23.9361L22.5709 27.4348C23.6533 24.2439 26.6901 21.8682 30.2784 21.8682H30.2758Z" fill="#E74133"/>
</g>
<defs>
<clipPath id="clip0_19_1167">
<rect width="27" height="27" fill="white" transform="translate(16.5 16.5)"/>
</clipPath>
</defs>
</svg>
