<svg width="48" height="48" viewBox="0 0 48 48" fill="none" xmlns="http://www.w3.org/2000/svg">
<g id="ic/search/sm">
<g id="Group 68">
<g id="Vector 45">
<path d="M42 14L25.9583 6.20066C25.6963 6.07327 25.3918 6.06648 25.1244 6.18205L7.0344 14L25.0814 22.7743C25.3726 22.9159 25.7144 22.9077 25.9985 22.7523L42 14Z" fill="#2B2B2B"/>
<path d="M7.0344 14L25.0814 22.7743C25.3726 22.9159 25.7144 22.9077 25.9985 22.7523L42 14L25.9583 6.20066C25.6963 6.07327 25.3918 6.06648 25.1244 6.18205L7.0344 14ZM7.0344 14C7.0344 14 6.08477 16.3916 6.006 18C5.9086 19.989 7.0344 23 7.0344 23M42 23L25.9985 31.7523C25.7144 31.9077 25.3726 31.9159 25.0814 31.7743L7.0344 23M7.0344 23C7.0344 23 6.006 26.0087 6.006 28C6.006 29.9913 7.0344 33 7.0344 33L25.0814 41.7743C25.3726 41.9159 25.7144 41.9077 25.9985 41.7523L42 33" stroke="#2B2B2B" stroke-width="4" stroke-linecap="round" stroke-linejoin="round"/>
</g>
</g>
</g>
</svg>
