<svg width="60" height="60" viewBox="0 0 60 60" fill="none" xmlns="http://www.w3.org/2000/svg">
<path d="M6 59.25C3.105 59.25 0.75 56.895 0.75 54V6C0.75 3.105 3.105 0.75 6 0.75H54C56.895 0.75 59.25 3.105 59.25 6V54C59.25 56.895 56.895 59.25 54 59.25H6Z" fill="#F5F7FA"/>
<path d="M54 1.5C56.475 1.5 58.5 3.525 58.5 6V54C58.5 56.475 56.475 58.5 54 58.5H6C3.525 58.5 1.5 56.475 1.5 54V6C1.5 3.525 3.525 1.5 6 1.5H54ZM54 0H6C2.7 0 0 2.7 0 6V54C0 57.3 2.7 60 6 60H54C57.3 60 60 57.3 60 54V6C60 2.7 57.3 0 54 0Z" fill="#E6E6EA"/>
<path d="M34.095 30.8101L25.575 18.6001H18.51V41.4001H25.905V29.1901L34.425 41.4001H41.49V18.6001H34.095V30.8101Z" fill="#03C75A"/>
</svg>
